<?xml version="1.0" encoding="utf-8"?>
<!-- Generator: Adobe Illustrator 23.0.0, SVG Export Plug-In . SVG Version: 6.00 Build 0)  -->
<svg version="1.1" id="图层_1" xmlns="http://www.w3.org/2000/svg" xmlns:xlink="http://www.w3.org/1999/xlink" x="0px" y="0px"
	 viewBox="0 0 180 180" style="enable-background:new 0 0 180 180;" xml:space="preserve">
<g>
	<path d="M162.22,90.66c0,12.36-0.11,24.73,0.07,37.09c0.05,3.29-0.82,5.21-3.83,6.91c-21.77,12.39-43.43,24.95-65.06,37.58
		c-2.52,1.47-4.43,1.55-6.99,0.06c-21.66-12.58-43.36-25.07-65.14-37.44c-2.78-1.58-3.67-3.38-3.65-6.49
		c0.15-24.9,0.18-49.8,0.09-74.7c-0.01-3.09,0.8-4.91,3.61-6.51C43.24,34.67,65.05,22.03,86.84,9.32c2.36-1.38,4.12-1.47,6.53-0.06
		c21.8,12.67,43.66,25.24,65.58,37.7c2.62,1.49,3.45,3.21,3.42,6.1c-0.13,12.53-0.06,25.07-0.06,37.61
		C162.28,90.66,162.25,90.66,162.22,90.66z M54.86,90.02c0,13.05,0.06,26.1-0.04,39.16c-0.03,3.24,0.52,5.27,4.45,5.1
		c12.46-0.56,25,1.1,37.39-1.1c10-1.77,18.5-6.22,24.44-14.78c8.68-12.51,9.51-26.39,7.16-40.85c-3.11-19.1-17.55-29.95-35.9-31.01
		c-10.95-0.63-21.98,0.03-32.97-0.2c-3.56-0.07-4.69,0.86-4.62,4.54C55,63.92,54.86,76.97,54.86,90.02z"/>
	<path d="M72.55,90.31c0-8.4,0.11-16.81-0.06-25.2c-0.06-2.97,0.51-4.4,3.9-4.16c5.11,0.36,10.42-0.51,15.35,0.55
		c12.88,2.76,18.9,10.42,19.84,23.76c0.37,5.3,0.14,10.64-1.47,15.65c-4.29,13.35-10.38,17.84-26.04,18.63
		c-11.5,0.58-11.52,0.16-11.52-11.22C72.55,102.31,72.55,96.31,72.55,90.31z"/>
</g>
</svg>
